<svg xmlns="http://www.w3.org/2000/svg" viewBox="0 0 128 16"><g fill="none" fill-rule="nonzero"><path fill="#000" fill-opacity=".4" d="M12.41 12.25v-2.227h1.34c.643 0 1.137-.149 1.482-.447.345-.298.518-.723.518-1.275 0-.524-.176-.944-.53-1.262-.352-.318-.84-.476-1.462-.476H11.66v5.687h.75zm1.348-2.84H12.41V7.18h1.39c.373.008.666.113.88.316.213.203.32.474.32.813 0 .356-.107.63-.32.818-.214.189-.521.283-.922.283zm5.043 2.918c.458 0 .86-.11 1.203-.328a2.13 2.13 0 00.797-.951c.187-.416.281-.902.281-1.46V9.23c0-.554-.094-1.04-.281-1.459a2.126 2.126 0 00-.803-.957c-.348-.22-.75-.33-1.205-.33-.448 0-.846.112-1.193.334a2.174 2.174 0 00-.807.963c-.19.42-.285.903-.285 1.45v.41c.005.536.103 1.008.295 1.416.191.407.46.721.806.941.347.22.744.33 1.192.33zm0-.637c-.482 0-.86-.186-1.135-.56-.275-.374-.412-.888-.412-1.541v-.418c.008-.64.148-1.141.42-1.502.272-.36.645-.541 1.119-.541.487 0 .866.18 1.137.54.27.362.406.88.406 1.554v.422c-.008.658-.145 1.164-.41 1.517-.266.353-.64.53-1.125.53zm5.043.559l1.215-4.145.09-.433.09.433 1.171 4.145h.684l1.379-5.688h-.754l-.883 3.891-.121.766-.156-.688-1.098-3.969h-.633l-1.125 3.97-.16.675-.11-.75-.898-3.895h-.75l1.375 5.688h.684zm9.074 0v-.613h-2.863V9.62h2.465v-.613h-2.465V7.18h2.824v-.617h-3.574v5.687h3.613zm1.684 0v-2.3h1.336l1.234 2.3h.805v-.047L36.64 9.79c.34-.13.607-.327.798-.59.192-.263.288-.571.288-.926 0-.557-.173-.981-.518-1.273-.345-.292-.838-.438-1.479-.438h-1.882v5.688h.754zm1.152-2.914h-1.152V7.18h1.148c.396.002.699.097.908.285.21.187.315.457.315.808 0 .323-.11.581-.33.774-.22.193-.517.289-.89.289zm6.637 2.914v-.613h-2.864V9.62h2.465v-.613h-2.465V7.18h2.825v-.617h-3.575v5.687h3.614zm2.507 0c.51-.005.958-.116 1.342-.332.384-.216.68-.526.887-.93.207-.403.31-.873.31-1.41v-.363c-.002-.524-.107-.987-.314-1.39a2.22 2.22 0 00-.88-.934 2.584 2.584 0 00-1.313-.329h-1.606v5.688h1.574zm-.035-.613h-.789V7.18h.875c.558.005.988.187 1.291.545.304.358.455.86.455 1.505v.332c0 .665-.16 1.176-.482 1.536-.322.359-.772.539-1.35.539zm7.66.613c.605 0 1.072-.146 1.403-.438.33-.291.496-.692.496-1.203 0-.333-.09-.62-.268-.861a1.319 1.319 0 00-.728-.49c.26-.112.466-.27.617-.475.151-.204.227-.44.227-.705 0-.5-.156-.877-.467-1.133-.311-.255-.776-.383-1.393-.383h-1.86v5.688h1.973zm-.09-3.262h-1.132V7.18h1.11c.372 0 .649.07.831.213.182.142.274.369.274.681 0 .281-.099.504-.295.668-.197.164-.46.246-.787.246zm.106 2.649h-1.238V9.59h1.25c.745 0 1.117.342 1.117 1.027 0 .318-.1.567-.303.748-.202.181-.477.272-.826.272zm5.102.613v-2.121l1.96-3.566h-.851l-1.484 2.855-1.477-2.855h-.86l1.962 3.566v2.121h.75z"/><path fill="#59C4F0" d="M70.18 11.726h-5.865c-.259 0-.469.207-.469.462 0 .256.21.463.47.463h5.865c.259 0 .469-.207.469-.463a.466.466 0 00-.47-.462m-5.865-3.7h5.866c.259 0 .469-.208.469-.463a.466.466 0 00-.47-.463h-5.865c-.259 0-.469.207-.469.463 0 .255.21.462.47.462m5.16 1.85a.466.466 0 00-.468-.462h-7.039c-.259 0-.469.207-.469.463 0 .255.21.462.47.462h7.038c.259 0 .469-.207.469-.462"/><path fill="#5FAF5D" d="M120.966 11.52c.604 0 1.166-.216 1.686-.646.524-.435.852-.956.983-1.562v-.006c.13-.611.028-1.132-.31-1.563-.333-.43-.802-.645-1.406-.645-.603 0-1.167.215-1.691.645-.52.435-.846.958-.977 1.569-.132.606-.03 1.127.303 1.562.338.43.808.646 1.412.646zm3.187.552a.693.693 0 01-.25.387.67.67 0 01-.429.159.429.429 0 01-.357-.159.425.425 0 01-.078-.387l.06-.288c-.747.556-1.537.834-2.371.834-.913 0-1.622-.323-2.127-.97-.508-.645-.663-1.424-.464-2.336.194-.917.685-1.698 1.471-2.344.786-.65 1.636-.975 2.55-.975.834 0 1.503.28 2.007.84l.548-2.531a.662.662 0 01.245-.387.655.655 0 01.428-.165c.155 0 .274.055.358.165a.438.438 0 01.083.387l-1.674 7.77zM75.397 3.75c.12 0 .228.03.328.091.099.06.17.148.211.261a.608.608 0 01.021.353.887.887 0 01-.173.35.928.928 0 01-.318.26.825.825 0 01-.373.094.627.627 0 01-.336-.094.494.494 0 01-.212-.26.614.614 0 01-.018-.35.912.912 0 01.173-.353.872.872 0 01.325-.261.872.872 0 01.372-.091m-.482 2.232c.155 0 .274.054.357.164a.438.438 0 01.083.388l-1.19 5.526a.692.692 0 01-.251.387.668.668 0 01-.429.159.428.428 0 01-.357-.159.415.415 0 01-.084-.387l1.192-5.526a.652.652 0 01.25-.388.655.655 0 01.429-.164m7.05 1.016c.464.646.597 1.427.399 2.343l-.596 2.778a.677.677 0 01-.25.388.669.669 0 01-.429.158.429.429 0 01-.357-.158.454.454 0 01-.078-.388l.596-2.778c.131-.61.051-1.133-.238-1.568-.298-.43-.717-.646-1.257-.646-.548 0-1.06.216-1.537.646a2.89 2.89 0 00-.918 1.568l-.595 2.76a.661.661 0 01-.245.388.661.661 0 01-.422.159.463.463 0 01-.37-.16.448.448 0 01-.077-.387l1.191-5.526a.703.703 0 01.244-.387.678.678 0 01.435-.165.432.432 0 01.435.552l-.042.217c.68-.512 1.392-.769 2.139-.769.85 0 1.507.325 1.972.975zm1.444 5.25a2.045 2.045 0 01-.638-.828.5.5 0 01.024-.41.739.739 0 01.322-.347.597.597 0 01.435-.065c.143.035.24.118.292.247.079.188.204.346.375.475.19.153.399.23.625.23.266 0 .51-.083.733-.247.223-.16.36-.356.411-.587.052-.235.012-.41-.119-.523-.115-.102-.387-.214-.816-.335-.544-.157-.923-.329-1.138-.517-.385-.32-.512-.783-.381-1.386.115-.532.417-.988.905-1.368.489-.376 1.021-.564 1.597-.564.413 0 .77.106 1.072.317.302.212.496.494.584.846a.536.536 0 01-.078.423.683.683 0 01-.357.305.55.55 0 01-.423.018.394.394 0 01-.256-.288.62.62 0 00-.268-.382.912.912 0 00-.512-.14 1.23 1.23 0 00-.74.246c-.222.16-.357.356-.404.587-.052.231-.016.402.107.511.115.094.387.204.816.33.548.16.931.332 1.15.516.381.329.506.797.375 1.404-.115.532-.417.988-.905 1.368-.489.376-1.019.564-1.59.564-.45 0-.849-.133-1.198-.4m8.332-6.255c.155 0 .274.055.357.165.084.106.11.235.078.387a.702.702 0 01-.244.388.655.655 0 01-.43.165h-.869l-1.072 4.974a.704.704 0 01-.245.387.669.669 0 01-.428.159.429.429 0 01-.358-.159.416.416 0 01-.083-.387l1.072-4.974h-.864a.439.439 0 01-.363-.165.425.425 0 01-.078-.388.662.662 0 01.245-.387.678.678 0 01.435-.165h.863l.364-1.691a.653.653 0 01.25-.388.655.655 0 01.429-.164c.155 0 .274.055.357.164.084.106.11.235.078.388l-.364 1.691h.87zm3.376 5.556c.604 0 1.166-.215 1.686-.646.52-.434.846-.955.977-1.562.13-.61.03-1.133-.304-1.568-.334-.43-.802-.646-1.406-.646-.604 0-1.167.216-1.692.646-.52.435-.846.958-.977 1.568-.13.607-.03 1.128.304 1.562.338.431.808.646 1.412.646m3.938-5.526c.154 0 .274.055.357.165.084.105.11.235.077.387l-1.19 5.526a.703.703 0 01-.245.388.67.67 0 01-.43.159.429.429 0 01-.357-.159.415.415 0 01-.083-.388l.06-.287c-.743.556-1.531.834-2.365.834-.914 0-1.623-.323-2.127-.97-.508-.645-.663-1.424-.465-2.337.195-.916.685-1.697 1.472-2.343.786-.65 1.636-.975 2.55-.975.833 0 1.503.278 2.007.834l.06-.282a.652.652 0 01.25-.387.655.655 0 01.429-.165"/><path fill="#59C4F0" d="M103.594 7.127c-.603 0-1.167.216-1.691.646-.52.435-.846.958-.977 1.568-.131.607-.03 1.128.303 1.562.338.431.809.646 1.412.646.739 0 1.394-.303 1.966-.91a.672.672 0 01.411-.217.476.476 0 01.101-.012c.112 0 .207.035.286.106a.405.405 0 01.15.358.81.81 0 01-.007.1.63.63 0 01-.173.305c-.861.913-1.852 1.369-2.972 1.369-.914 0-1.622-.323-2.127-.97-.508-.645-.663-1.424-.464-2.337.194-.916.685-1.697 1.471-2.343.786-.65 1.636-.975 2.55-.975 1.12 0 1.912.456 2.376 1.369a.446.446 0 01.006.41.703.703 0 01-.303.359.59.59 0 01-.328.106.469.469 0 01-.101-.012.391.391 0 01-.316-.223c-.31-.603-.834-.905-1.573-.905"/><path fill="#5FAF5D" d="M110.693 6.023c.155 0 .274.055.358.165a.439.439 0 01.083.387.692.692 0 01-.25.388.655.655 0 01-.429.164c-.544 0-1.056.216-1.537.646-.477.435-.78.958-.912 1.568l-.595 2.76a.704.704 0 01-.244.388.685.685 0 01-.43.159.445.445 0 01-.363-.159.425.425 0 01-.077-.388l1.191-5.526a.662.662 0 01.245-.387.678.678 0 01.434-.165c.151 0 .27.055.358.165a.45.45 0 01.077.387l-.048.217c.684-.512 1.397-.769 2.14-.769m5.846 2.772c-.02-.485-.197-.885-.53-1.198-.346-.317-.78-.476-1.3-.476-.524 0-1.026.159-1.506.476-.47.313-.82.713-1.055 1.198h4.39zm-5.207 2.884a2.55 2.55 0 01-.494-1.046c-.092-.41-.09-.84.006-1.286.198-.916.696-1.699 1.495-2.349a4.574 4.574 0 011.233-.71 3.797 3.797 0 011.376-.265c.93 0 1.654.325 2.174.975.247.305.411.658.495 1.057.091.411.087.842-.012 1.292a.663.663 0 01-.245.388.677.677 0 01-.434.164h-5.016c.028.478.21.871.548 1.18.341.314.774.47 1.298.47.827 0 1.517-.248 2.074-.745a.65.65 0 01.417-.182.455.455 0 01.375.135.43.43 0 01.107.381.65.65 0 01-.232.394c-.826.744-1.82 1.116-2.979 1.116-.933 0-1.662-.323-2.186-.97z"/></g></svg>